<mxfile host="app.diagrams.net" agent="Mozilla/5.0 (Macintosh; Intel Mac OS X 10_15_7) AppleWebKit/537.36 (KHTML, like Gecko) Chrome/130.0.0.0 Safari/537.36" version="24.8.3">
  <diagram name="Page-1" id="GPhJdgHidg6BHuNB2Gi7">
    <mxGraphModel dx="973" dy="751" grid="1" gridSize="10" guides="1" tooltips="1" connect="1" arrows="1" fold="1" page="1" pageScale="1" pageWidth="850" pageHeight="1100" math="0" shadow="0">
      <root>
        <mxCell id="0" />
        <mxCell id="1" parent="0" />
        <mxCell id="YMlx_XhFq3Fvy0FKkB7k-4" value="&lt;br&gt;&lt;div&gt;&lt;br&gt;&lt;/div&gt;&lt;div&gt;&lt;br&gt;&lt;/div&gt;&lt;div&gt;&lt;br&gt;&lt;/div&gt;&lt;div&gt;&lt;br&gt;&lt;/div&gt;&lt;div&gt;&lt;br&gt;&lt;/div&gt;&lt;div&gt;&lt;br&gt;&lt;/div&gt;&lt;div&gt;&lt;br&gt;&lt;/div&gt;&lt;div&gt;&lt;br&gt;&lt;/div&gt;&lt;div&gt;&lt;br&gt;&lt;/div&gt;&lt;div&gt;&lt;br&gt;&lt;/div&gt;&lt;div&gt;&lt;br&gt;&lt;/div&gt;&lt;div&gt;&lt;br&gt;&lt;/div&gt;&lt;div&gt;&lt;br&gt;&lt;/div&gt;&lt;div&gt;&lt;br&gt;&lt;/div&gt;&lt;div&gt;&lt;br&gt;&lt;/div&gt;&lt;div&gt;&lt;br&gt;&lt;/div&gt;&lt;div&gt;&lt;br&gt;&lt;/div&gt;&lt;div&gt;&lt;br&gt;&lt;/div&gt;&lt;div&gt;&lt;br&gt;&lt;/div&gt;&lt;div&gt;&lt;br&gt;&lt;/div&gt;&lt;div&gt;&lt;br&gt;&lt;/div&gt;&lt;div&gt;&lt;br&gt;&lt;/div&gt;&lt;div&gt;&lt;br&gt;&lt;/div&gt;&lt;div&gt;Intranet&lt;/div&gt;" style="rounded=0;whiteSpace=wrap;html=1;align=center;labelPosition=center;verticalLabelPosition=middle;verticalAlign=middle;" vertex="1" parent="1">
          <mxGeometry x="19" y="100" width="760" height="420" as="geometry" />
        </mxCell>
        <mxCell id="YMlx_XhFq3Fvy0FKkB7k-10" style="edgeStyle=orthogonalEdgeStyle;rounded=0;orthogonalLoop=1;jettySize=auto;html=1;exitX=1;exitY=0.5;exitDx=0;exitDy=0;" edge="1" parent="1" source="YMlx_XhFq3Fvy0FKkB7k-1" target="YMlx_XhFq3Fvy0FKkB7k-2">
          <mxGeometry relative="1" as="geometry" />
        </mxCell>
        <mxCell id="YMlx_XhFq3Fvy0FKkB7k-13" value="Authenticate" style="edgeLabel;html=1;align=center;verticalAlign=middle;resizable=0;points=[];" vertex="1" connectable="0" parent="YMlx_XhFq3Fvy0FKkB7k-10">
          <mxGeometry x="0.2667" y="-2" relative="1" as="geometry">
            <mxPoint as="offset" />
          </mxGeometry>
        </mxCell>
        <mxCell id="YMlx_XhFq3Fvy0FKkB7k-12" style="edgeStyle=orthogonalEdgeStyle;rounded=0;orthogonalLoop=1;jettySize=auto;html=1;exitX=1;exitY=0.75;exitDx=0;exitDy=0;entryX=0;entryY=0.5;entryDx=0;entryDy=0;" edge="1" parent="1" source="YMlx_XhFq3Fvy0FKkB7k-1" target="YMlx_XhFq3Fvy0FKkB7k-3">
          <mxGeometry relative="1" as="geometry" />
        </mxCell>
        <mxCell id="YMlx_XhFq3Fvy0FKkB7k-14" value="CRUD Operations" style="edgeLabel;html=1;align=center;verticalAlign=middle;resizable=0;points=[];" vertex="1" connectable="0" parent="YMlx_XhFq3Fvy0FKkB7k-12">
          <mxGeometry x="0.3183" y="-2" relative="1" as="geometry">
            <mxPoint as="offset" />
          </mxGeometry>
        </mxCell>
        <mxCell id="YMlx_XhFq3Fvy0FKkB7k-1" value="User interface" style="rounded=0;whiteSpace=wrap;html=1;" vertex="1" parent="1">
          <mxGeometry x="70" y="180" width="120" height="60" as="geometry" />
        </mxCell>
        <mxCell id="YMlx_XhFq3Fvy0FKkB7k-2" value="Firebase" style="rounded=0;whiteSpace=wrap;html=1;" vertex="1" parent="1">
          <mxGeometry x="470" y="160" width="120" height="60" as="geometry" />
        </mxCell>
        <mxCell id="YMlx_XhFq3Fvy0FKkB7k-15" style="edgeStyle=orthogonalEdgeStyle;rounded=0;orthogonalLoop=1;jettySize=auto;html=1;exitX=0.5;exitY=1;exitDx=0;exitDy=0;entryX=0.75;entryY=1;entryDx=0;entryDy=0;" edge="1" parent="1" source="YMlx_XhFq3Fvy0FKkB7k-3" target="YMlx_XhFq3Fvy0FKkB7k-1">
          <mxGeometry relative="1" as="geometry" />
        </mxCell>
        <mxCell id="YMlx_XhFq3Fvy0FKkB7k-16" value="Real-Time Updates" style="edgeLabel;html=1;align=center;verticalAlign=middle;resizable=0;points=[];" vertex="1" connectable="0" parent="YMlx_XhFq3Fvy0FKkB7k-15">
          <mxGeometry x="-0.116" y="1" relative="1" as="geometry">
            <mxPoint as="offset" />
          </mxGeometry>
        </mxCell>
        <mxCell id="YMlx_XhFq3Fvy0FKkB7k-3" value="Airtable" style="rounded=0;whiteSpace=wrap;html=1;" vertex="1" parent="1">
          <mxGeometry x="470" y="270" width="120" height="60" as="geometry" />
        </mxCell>
        <mxCell id="YMlx_XhFq3Fvy0FKkB7k-6" value="Client Side" style="text;html=1;align=center;verticalAlign=middle;resizable=0;points=[];autosize=1;strokeColor=none;fillColor=none;" vertex="1" parent="1">
          <mxGeometry x="85" y="120" width="90" height="30" as="geometry" />
        </mxCell>
        <mxCell id="YMlx_XhFq3Fvy0FKkB7k-7" value="Server Side" style="text;html=1;align=center;verticalAlign=middle;resizable=0;points=[];autosize=1;strokeColor=none;fillColor=none;" vertex="1" parent="1">
          <mxGeometry x="485" y="110" width="90" height="30" as="geometry" />
        </mxCell>
        <mxCell id="YMlx_XhFq3Fvy0FKkB7k-11" style="edgeStyle=orthogonalEdgeStyle;rounded=0;orthogonalLoop=1;jettySize=auto;html=1;exitX=0.5;exitY=1;exitDx=0;exitDy=0;" edge="1" parent="1" source="YMlx_XhFq3Fvy0FKkB7k-3" target="YMlx_XhFq3Fvy0FKkB7k-3">
          <mxGeometry relative="1" as="geometry" />
        </mxCell>
      </root>
    </mxGraphModel>
  </diagram>
</mxfile>
